<svg id="bloodmallet_logo" data-name="bloodmallet-logo" xmlns="http://www.w3.org/2000/svg" viewBox="0 0 3164.52 2888.34"><defs><style>.mallet-head{fill:#999999;}.mallet-handle{fill:#999999;}.mallet-front{fill:#0070de;}</style></defs><path class="mallet-head" d="M2596.68,2579.72l-110.92-272.54,197.76,173.67,521-593.27-988.77-868.32L1086.91,2304.66,2075.69,3173ZM2263.92,1762.1l86.83-98.88,197.75,173.66-173.66,197.76Zm-521,593.26,173.67-197.75,110.92,272.54L1940.68,2529Z" transform="translate(-917.74 -1019.26) rotate(0)"/><polygon class="mallet-front" points="910.16 2358.98 0 1564.76 20.87 1454.04 92.48 1373.54 1082.36 2240.6 1015.76 2318.72 910.16 2358.98"/><path class="mallet-handle" d="M3700.11,3201.07l-140.67-123.38-336,383.15-281.34-246.75,336-383.15-140.67-123.37-336,383.15L2520.05,2844l436.86-498.1,1125.35,987L3578.19,3907.6l-214.13-323.38Z" transform="translate(-917.74 -1019.26)"/></svg>
